<?xml version="1.0" encoding="UTF-8" standalone="no"?>
<!DOCTYPE svg PUBLIC "-//W3C//DTD SVG 1.1//EN" "http://www.w3.org/Graphics/SVG/1.1/DTD/svg11.dtd">
<svg width="100%" height="100%" viewBox="0 0 1098 397" version="1.1" xmlns="http://www.w3.org/2000/svg" xmlns:xlink="http://www.w3.org/1999/xlink" xml:space="preserve" xmlns:serif="http://www.serif.com/" style="fill-rule:evenodd;clip-rule:evenodd;stroke-linejoin:round;stroke-miterlimit:2;">
    <g id="Mesa-de-trabajo1" serif:id="Mesa de trabajo1" transform="matrix(1,0,0,1.26423,0,0)">
        <rect x="0" y="0" width="1098" height="314" style="fill:none;"/>
        <g id="Capa-1" serif:id="Capa 1" transform="matrix(1,0,0,0.790998,0,0)">
            <g transform="matrix(1,0,0,1,939.439,256.649)">
                <path d="M0,-212.593C-60.494,-212.593 -108.418,-165.596 -108.418,-106.282C-108.418,-47.014 -60.494,0 0,0C60.454,0 108.417,-47.014 108.417,-106.282C108.417,-165.596 60.466,-212.593 0,-212.593M-12.385,-195.348C-10.755,-195.735 -9.027,-195.977 -7.414,-196.062L-7.414,-156.769C-15.49,-157.722 -24.103,-159.595 -31.94,-162.122C-26.845,-173.759 -20.264,-184.928 -12.385,-195.348M-7.414,-142.061L-7.414,-113.559L-45.086,-113.559C-44.107,-125.181 -41.307,-137.204 -36.766,-149.313C-27.038,-145.587 -16.706,-143.035 -7.414,-142.061M-33.027,-190.265C-37.661,-183.282 -41.836,-175.513 -45.24,-167.55C-50.775,-169.955 -55.853,-172.836 -59.587,-175.069C-51.778,-181.675 -42.863,-186.766 -33.027,-190.265M-69.96,-164.893C-63.996,-161.177 -57.343,-157.659 -50.171,-154.432C-55.383,-140.455 -58.778,-126.026 -59.772,-113.548L-91.182,-113.548C-89.712,-133.275 -82.395,-150.986 -69.96,-164.893M-91.182,-99.161L-59.814,-99.107C-59.044,-86.704 -55.651,-72.257 -50.182,-58.169C-57.201,-55.058 -63.854,-51.543 -69.96,-47.715C-82.395,-61.671 -89.712,-79.409 -91.182,-99.161M-59.647,-37.633C-55.413,-40.381 -50.315,-43.081 -45.033,-45.376C-41.802,-37.344 -37.751,-29.618 -32.979,-22.341C-42.89,-25.802 -51.84,-30.935 -59.647,-37.633M-7.408,-16.511C-8.893,-16.6 -10.593,-16.841 -12.385,-17.229C-19.927,-27.309 -26.565,-38.882 -31.623,-50.788C-23.752,-53.243 -15.611,-54.935 -7.408,-55.85L-7.408,-16.511ZM-7.408,-70.52C-16.759,-69.54 -27.085,-67.009 -36.74,-63.307C-41.282,-75.63 -44.076,-87.663 -45.074,-99.107L-7.408,-99.107L-7.408,-70.52ZM91.108,-113.548L59.783,-113.548C58.769,-126.057 55.379,-140.483 50.19,-154.432C57.407,-157.692 64.057,-161.21 69.968,-164.881C82.432,-150.891 89.714,-133.187 91.108,-113.548M59.622,-175.078C55.23,-172.462 50.486,-169.798 45.279,-167.557C41.957,-175.277 37.696,-183.196 33.036,-190.275C42.842,-186.784 51.785,-181.684 59.622,-175.078M7.412,-196.062C9.033,-195.977 10.737,-195.735 12.386,-195.348C20.355,-184.784 26.906,-173.612 31.865,-162.122C24.086,-159.591 15.495,-157.722 7.412,-156.763L7.412,-196.062ZM7.412,-142.061C16.768,-143.035 26.883,-145.535 36.8,-149.313C41.292,-137.223 44.054,-125.206 45.005,-113.559L7.412,-113.559L7.412,-142.061ZM7.412,-99.107L45.011,-99.107C44.033,-87.728 41.207,-75.404 36.787,-63.307C26.945,-67.058 16.84,-69.54 7.412,-70.52L7.412,-99.107ZM12.398,-17.229C10.543,-16.841 8.875,-16.6 7.412,-16.511L7.412,-55.85C15.639,-54.935 23.762,-53.243 31.589,-50.788C26.614,-38.975 20.011,-27.414 12.398,-17.229M33.011,-22.359C37.771,-29.627 41.796,-37.356 45.023,-45.376C50.292,-43.086 55.401,-40.384 59.682,-37.642C51.844,-30.944 42.901,-25.814 33.011,-22.359M69.974,-47.715C63.93,-51.505 57.294,-55.019 50.215,-58.169C55.675,-72.178 59.068,-86.62 59.827,-99.107L91.145,-99.107C89.738,-79.47 82.446,-61.75 69.974,-47.715" style="fill:rgb(38,152,90);fill-rule:nonzero;"/>
            </g>
            <g transform="matrix(1,0,0,1,66.9569,123.68)">
                <path d="M0,17.345C0,14.035 0.152,10.811 -0.054,7.605C-0.194,5.283 -2.145,3.822 -4.495,3.791C-6.843,3.761 -8.737,5.274 -9.159,7.556C-9.277,8.199 -9.334,8.864 -9.337,9.518C-9.36,12.11 -9.346,14.703 -9.346,17.345L0,17.345ZM18.375,17.345C18.375,13.592 18.518,9.892 18.315,6.209C18.202,4.134 16.774,2.684 14.798,1.978C10.875,0.58 7.188,3.319 7.105,7.702C7.052,10.682 7.094,13.663 7.1,16.649C7.1,16.873 7.154,17.104 7.188,17.345L18.375,17.345ZM25.975,26.542L-16.701,26.542C-16.735,26.345 -16.795,26.18 -16.795,26.013C-16.761,19.486 -16.874,12.954 -16.636,6.437C-16.485,2.164 -14.712,-1.513 -10.983,-3.919C-6.061,-7.094 0.582,-5.412 2.969,-0.254C3.015,-0.174 3.108,-0.104 3.222,0.022C4.085,-2.104 5.399,-3.85 7.118,-5.287C11.798,-9.197 19.14,-8.113 22.958,-2.977C25.037,-0.174 25.953,3.036 26.003,6.456C26.092,13.019 26.036,19.577 26.042,26.15C26.042,26.243 26.008,26.345 25.975,26.542" style="fill:rgb(38,152,90);"/>
            </g>
            <g transform="matrix(1,0,0,1,50.2314,177.237)">
                <path d="M0,19.322L1.342,19.322C9.192,19.322 17.033,19.332 24.886,19.318C27.402,19.313 29.768,18.764 31.795,17.145C34.763,14.772 35.999,10.625 34.845,6.81C33.781,3.278 30.354,0.464 26.703,0.149C25.878,0.078 25.039,0.042 24.204,0.04C16.564,0.025 8.931,0.032 1.285,0.032L-0.01,0.032L-0.01,-9.084C0.353,-9.101 0.684,-9.141 1.023,-9.141C9.112,-9.141 17.203,-9.165 25.292,-9.139C33.373,-9.103 39.941,-4.844 42.383,2.4C44.829,9.64 44.128,16.593 38.987,22.623C35.918,26.224 31.849,28.194 27.145,28.294C18.252,28.487 9.364,28.417 0.474,28.453C0.343,28.453 0.206,28.405 0,28.369L0,19.322Z" style="fill:rgb(38,152,90);"/>
            </g>
            <g transform="matrix(1,0,0,1,70.4982,232.167)">
                <path d="M0,15.46C0,12.058 0.203,8.758 -0.059,5.491C-0.281,2.61 -3.013,0.546 -5.948,0.546C-8.881,0.546 -11.539,2.603 -11.84,5.491C-12.126,8.2 -12.022,10.951 -12.094,13.687C-12.102,14.262 -12.094,14.839 -12.094,15.46L0,15.46ZM8.414,15.507L22.437,15.507L22.437,24.587L-20.196,24.587C-20.249,24.469 -20.323,24.373 -20.323,24.28C-20.3,17.791 -20.47,11.292 -20.192,4.815C-19.888,-2.353 -14.22,-8.093 -7.447,-8.57C0.319,-9.127 6.582,-4.557 8.063,2.877C8.4,4.556 8.368,6.33 8.4,8.051C8.451,10.475 8.414,12.905 8.414,15.507" style="fill:rgb(38,152,90);"/>
            </g>
            <g transform="matrix(1,0,0,1,50.2341,78.5444)">
                <path d="M0,10.508L34.22,10.508L34.22,-9.123L42.698,-9.123L42.698,19.631L0,19.631L0,10.508Z" style="fill:rgb(38,152,90);"/>
            </g>
            <g transform="matrix(1,0,0,1,0,-212.556)">
                <rect x="50.221" y="255.078" width="42.693" height="9.038" style="fill:rgb(38,152,90);"/>
            </g>
            <g transform="matrix(1,0,0,1,686.336,153.931)">
                <path d="M0,-8.557L0,-59.9L38.814,-59.9C58.68,-59.9 70.906,-51.343 70.906,-34.533L70.906,-33.925C70.906,-18.337 59.292,-8.557 39.121,-8.557L0,-8.557ZM86.492,28.119C113.081,16.812 130.502,-4.889 130.502,-37.59L130.502,-38.201C130.502,-59.29 124.084,-75.793 111.553,-88.02C97.188,-102.689 74.572,-111.248 41.872,-111.248L-420.603,-111.248L-471.641,-28.423L-522.681,-111.248L-586.113,-111.248L-586.113,102.691L-527.265,102.691L-527.265,-19.558L-472.864,63.571L-471.641,63.571L-416.934,-20.17L-416.934,102.691L-205.535,102.691L-235.708,52.264L-357.948,52.264L-357.948,18.338L-243.408,18.338L-273.581,-28.423L-357.948,-28.423L-357.948,-60.818L-244.781,-60.818L-244.781,-60.858L-182.18,-60.858L-182.18,102.691L-122.889,102.691L-122.889,-60.858L-59.291,-60.858L-59.291,102.691L0,102.691L0,37.9L25.979,37.9L69.072,102.691L137.532,102.691L86.492,28.119Z" style="fill:rgb(38,152,90);fill-rule:nonzero;"/>
            </g>
            <g transform="matrix(0.995024,0,0,0.983776,399.332,-835.893)">
                <path d="M153.278,1198.47C156.594,1193.98 158.509,1188.45 158.509,1182.56C158.509,1167.97 147.456,1155.96 131.614,1155.96C115.771,1155.96 104.571,1168.12 104.571,1182.7C104.571,1197.29 115.624,1209.31 131.466,1209.31C137.509,1209.31 142.814,1207.46 147.162,1204.44L153.351,1209.97L159.173,1203.48L153.278,1198.47ZM140.456,1198.47C138.025,1200.02 135.003,1200.98 131.614,1200.98C121.371,1200.98 114.076,1192.65 114.076,1182.56C114.076,1172.46 121.224,1164.28 131.466,1164.28C141.709,1164.28 149.004,1172.61 149.004,1182.7C149.004,1186.32 148.12,1189.7 146.351,1192.43L137.435,1184.33L131.614,1190.96L140.456,1198.47Z" style="fill:rgb(38,152,90);fill-rule:nonzero;"/>
                <path d="M221.659,1156.84L212.595,1156.84L212.595,1186.54C212.595,1196.04 207.658,1200.9 199.626,1200.9C191.521,1200.9 186.584,1195.75 186.584,1186.17L186.584,1156.84L177.521,1156.84L177.521,1186.54C177.521,1201.5 186.068,1209.23 199.479,1209.23C212.964,1209.23 221.659,1201.5 221.659,1186.09L221.659,1156.84Z" style="fill:rgb(38,152,90);fill-rule:nonzero;"/>
                <path d="M281.197,1156.84L242.954,1156.84L242.954,1208.42L281.566,1208.42L281.566,1200.32L252.018,1200.32L252.018,1186.46L277.881,1186.46L277.881,1178.36L252.018,1178.36L252.018,1164.95L281.197,1164.95L281.197,1156.84Z" style="fill:rgb(38,152,90);fill-rule:nonzero;"/>
                <path d="M344.936,1208.42L331.009,1188.89C338.231,1186.9 343.315,1181.75 343.315,1173.2C343.315,1163.1 336.02,1156.84 324.157,1156.84L301.166,1156.84L301.166,1208.42L310.23,1208.42L310.23,1190.44L321.578,1190.44L334.252,1208.42L344.936,1208.42ZM334.104,1173.71C334.104,1179.02 329.978,1182.41 323.493,1182.41L310.23,1182.41L310.23,1165.09L323.42,1165.09C330.125,1165.09 334.104,1168.04 334.104,1173.71Z" style="fill:rgb(38,152,90);fill-rule:nonzero;"/>
                <path d="M401.527,1156.84L363.284,1156.84L363.284,1208.42L401.896,1208.42L401.896,1200.32L372.348,1200.32L372.348,1186.46L398.212,1186.46L398.212,1178.36L372.348,1178.36L372.348,1164.95L401.527,1164.95L401.527,1156.84ZM383.99,1152.57L392.98,1144.09L384.874,1140.48L377.063,1152.57L383.99,1152.57Z" style="fill:rgb(38,152,90);fill-rule:nonzero;"/>
                <path d="M443.308,1165.24L459.666,1165.24L459.666,1156.84L417.812,1156.84L417.812,1165.24L434.171,1165.24L434.171,1208.42L443.308,1208.42L443.308,1165.24Z" style="fill:rgb(38,152,90);fill-rule:nonzero;"/>
                <path d="M498.13,1156.47L489.73,1156.47L467.035,1208.42L476.319,1208.42L481.625,1195.97L506.015,1195.97L511.247,1208.42L520.826,1208.42L498.13,1156.47ZM502.699,1187.94L484.94,1187.94L493.783,1167.3L502.699,1187.94Z" style="fill:rgb(38,152,90);fill-rule:nonzero;"/>
                <path d="M582.28,1208.42L568.354,1188.89C575.575,1186.9 580.659,1181.75 580.659,1173.2C580.659,1163.1 573.364,1156.84 561.501,1156.84L538.511,1156.84L538.511,1208.42L547.574,1208.42L547.574,1190.44L558.922,1190.44L571.596,1208.42L582.28,1208.42ZM571.448,1173.71C571.448,1179.02 567.322,1182.41 560.838,1182.41L547.574,1182.41L547.574,1165.09L560.764,1165.09C567.469,1165.09 571.448,1168.04 571.448,1173.71Z" style="fill:rgb(38,152,90);fill-rule:nonzero;"/>
                <path d="M652.282,1182.56C652.282,1167.97 641.23,1155.96 625.387,1155.96C609.544,1155.96 598.344,1168.12 598.344,1182.7C598.344,1197.29 609.397,1209.31 625.24,1209.31C641.082,1209.31 652.282,1197.15 652.282,1182.56ZM642.777,1182.7C642.777,1192.8 635.629,1200.98 625.387,1200.98C615.144,1200.98 607.85,1192.65 607.85,1182.56C607.85,1172.46 614.997,1164.28 625.24,1164.28C635.482,1164.28 642.777,1172.61 642.777,1182.7Z" style="fill:rgb(38,152,90);fill-rule:nonzero;"/>
            </g>
        </g>
    </g>
</svg>
